<svg width="16" height="16" viewBox="0 0 18 18" fill="none" xmlns="http://www.w3.org/2000/svg">
<path d="M15.6401 9.00092H15.2857C15.2916 8.9286 15.2916 8.85602 15.2857 8.78383V6.93229C15.2857 6.5717 15.1425 6.22577 14.8874 5.97068C14.6323 5.71559 14.2864 5.57234 13.9258 5.57234H9.57145V4.89812C9.90487 4.78013 10.1938 4.56202 10.3984 4.27349C10.603 3.98497 10.7133 3.64031 10.7143 3.28661C10.7143 2.47511 9.7028 1.45228 9.39426 1.15523C9.28827 1.05548 9.14834 1 9.00281 1C8.8574 1 8.71735 1.05548 8.6115 1.15523C8.29721 1.4523 7.28571 2.47514 7.28571 3.28661C7.28673 3.64031 7.39706 3.98497 7.60165 4.27349C7.80625 4.56201 8.09514 4.78014 8.42857 4.89812V5.57234H4.07425C3.71365 5.57234 3.36773 5.71558 3.11264 5.97068C2.85755 6.22578 2.7143 6.5717 2.7143 6.93229V8.78383C2.70843 8.85602 2.70843 8.9286 2.7143 9.00092H2.35995C1.99935 9.00092 1.65343 9.14416 1.39834 9.39926C1.14325 9.65436 1 10.0003 1 10.3609V15.6409C1 16.0015 1.14324 16.3474 1.39834 16.6025C1.65344 16.8576 1.99935 17.0009 2.35995 17.0009H15.6401C16.0006 17.0009 16.3466 16.8576 16.6017 16.6025C16.8567 16.3474 17 16.0015 17 15.6409V10.3609C17 10.0003 16.8568 9.65435 16.6017 9.39926C16.3466 9.14417 16.0006 9.00092 15.6401 9.00092H15.6401ZM9.00001 2.40103C9.25244 2.65129 9.44746 2.95359 9.57145 3.28675C9.57145 3.49097 9.46252 3.67961 9.28573 3.78165C9.10894 3.88369 8.89108 3.88369 8.7143 3.78165C8.53751 3.67961 8.42858 3.49096 8.42858 3.28675C8.55256 2.95359 8.74759 2.65129 9.00001 2.40103ZM3.85711 8.7841V6.93256C3.85711 6.87504 3.87995 6.81981 3.92076 6.77912C3.96145 6.7383 4.01668 6.71547 4.07421 6.71547H13.9257C14.0456 6.71547 14.1428 6.81267 14.1428 6.93256V8.7841C14.1428 8.904 14.0456 9.0012 13.9257 9.0012H4.07421C4.01668 9.0012 3.96145 8.97837 3.92076 8.93755C3.87994 8.89686 3.85711 8.84163 3.85711 8.7841V8.7841ZM2.14281 10.3612C2.14281 10.2413 2.24001 10.1441 2.35991 10.1441H15.64C15.7599 10.1441 15.8571 10.2413 15.8571 10.3612V12.7155C15.8571 13.0218 15.6937 13.3047 15.4285 13.4579C15.1634 13.6109 14.8366 13.6109 14.5714 13.4579C14.3062 13.3047 14.1428 13.0218 14.1428 12.7155V11.287C14.1428 11.0827 14.0339 10.8941 13.8571 10.7921C13.6803 10.69 13.4624 10.69 13.2857 10.7921C13.1089 10.8941 12.9999 11.0827 12.9999 11.287C12.9999 11.4912 12.891 11.6798 12.7142 11.7818C12.5374 11.8839 12.3196 11.8839 12.1428 11.7818C11.966 11.6798 11.8571 11.4912 11.8571 11.287C11.8571 11.0827 11.7481 10.8941 11.5714 10.7921C11.3946 10.69 11.1767 10.69 10.9999 10.7921C10.8231 10.8941 10.7142 11.0827 10.7142 11.287V12.4298C10.7142 12.634 10.6053 12.8227 10.4285 12.9247C10.2517 13.0268 10.0338 13.0268 9.85706 12.9247C9.68027 12.8227 9.57134 12.634 9.57134 12.4298V11.287C9.57134 11.0827 9.46241 10.8941 9.28562 10.7921C9.10884 10.69 8.89098 10.69 8.71419 10.7921C8.53741 10.8941 8.42847 11.0827 8.42847 11.287C8.42847 11.4912 8.31955 11.6798 8.14276 11.7818C7.96597 11.8839 7.74811 11.8839 7.57132 11.7818C7.39454 11.6798 7.28561 11.4912 7.28561 11.287C7.28561 11.0827 7.17668 10.8941 6.99989 10.7921C6.8231 10.69 6.60524 10.69 6.42846 10.7921C6.25167 10.8941 6.14274 11.0827 6.14274 11.287V11.8584C6.14274 12.0626 6.03381 12.2512 5.85703 12.3533C5.68024 12.4553 5.46238 12.4553 5.28559 12.3533C5.10881 12.2512 4.99988 12.0626 4.99988 11.8584C4.99988 11.6542 4.89095 11.4655 4.71416 11.3635C4.53737 11.2614 4.31951 11.2614 4.14273 11.3635C3.96594 11.4655 3.85701 11.6542 3.85701 11.8584V12.7155C3.85701 13.0218 3.69361 13.3047 3.42843 13.4579C3.16325 13.6109 2.83646 13.6109 2.57128 13.4579C2.3061 13.3047 2.14271 13.0218 2.14271 12.7155L2.14281 10.3612ZM15.6401 15.8583H2.35996C2.24006 15.8583 2.14287 15.7612 2.14287 15.6413V14.4984C2.40856 14.6345 2.70153 14.7087 3.00002 14.7155C3.40551 14.7143 3.80117 14.5904 4.13472 14.3597C4.46827 14.1292 4.72414 13.803 4.86867 13.424C5.2433 13.5915 5.66561 13.619 6.05872 13.5016C6.45196 13.3841 6.78999 13.1295 7.01154 12.7841C7.46474 13.0308 8.00273 13.0683 8.48577 12.8869C8.6183 13.3745 8.95925 13.7788 9.41741 13.9919C9.87557 14.2049 10.4045 14.2049 10.8627 13.9919C11.321 13.7789 11.6618 13.3745 11.7943 12.8869C12.1855 13.0297 12.6146 13.0297 13.0058 12.8869C13.0487 13.3861 13.2775 13.8509 13.6468 14.1896C14.0162 14.5282 14.4991 14.7159 15.0001 14.7155C15.2972 14.7141 15.5902 14.6457 15.8573 14.5155V15.6583C15.8483 15.7715 15.7537 15.8587 15.6402 15.8583L15.6401 15.8583Z" fill="#9299A3"/>
</svg>
