<svg width="20" height="20" viewBox="0 0 20 20" fill="none" xmlns="http://www.w3.org/2000/svg">
<path fill-rule="evenodd" clip-rule="evenodd" d="M12.625 3C13.062 3 13.48 3.175 13.785 3.483L15.853 5.55C16.161 5.858 16.333 6.275 16.333 6.71C16.333 7.146 16.161 7.563 15.853 7.87L8.305 15.416C7.84 15.953 7.18 16.283 6.423 16.336H3V15.669L3.002 12.859C3.059 12.156 3.386 11.502 3.885 11.063L11.464 3.483C11.771 3.174 12.189 3 12.625 3V3ZM9.868 6.963L4.798 12.033C4.528 12.273 4.361 12.606 4.334 12.913V15.003H6.376C6.732 14.978 7.064 14.813 7.33 14.508L12.371 9.466L9.868 6.963V6.963ZM12.625 4.333C12.545 4.333 12.466 4.366 12.409 4.423L10.811 6.021L13.313 8.523L14.91 6.928C14.968 6.87 15 6.792 15 6.71C15 6.629 14.968 6.55 14.91 6.493L12.841 4.423C12.784 4.366 12.706 4.333 12.625 4.333Z" fill="#9299A3"/>
</svg>
