<svg width="20" height="20" viewBox="0 0 20 20" fill="none" xmlns="http://www.w3.org/2000/svg">
<path fill-rule="evenodd" clip-rule="evenodd" d="M9.667 3C13.349 3 16.334 5.985 16.334 9.667C16.334 13.349 13.349 16.334 9.667 16.334C5.985 16.334 3 13.349 3 9.667C3 5.985 5.985 3 9.667 3ZM9.667 12.697C7.504 12.697 6.23 13.114 6.052 13.751C7.014 14.604 8.28 15.121 9.667 15.121C10.99 15.121 12.202 14.651 13.147 13.868L13.282 13.752C13.105 13.114 11.831 12.697 9.667 12.697ZM9.667 4.212C6.655 4.212 4.212 6.655 4.212 9.667C4.212 10.821 4.571 11.892 5.182 12.773C5.865 11.872 7.468 11.485 9.667 11.485C11.867 11.485 13.469 11.872 14.151 12.772C14.763 11.892 15.121 10.822 15.121 9.667C15.121 6.655 12.679 4.212 9.667 4.212V4.212ZM9.667 6.031C11.13 6.031 12.091 7.195 12.091 8.576C12.091 10.564 11.011 11.486 9.667 11.486C8.31 11.486 7.243 10.532 7.243 8.455C7.243 7.095 8.2 6.031 9.667 6.031V6.031ZM9.667 7.243C8.9 7.243 8.455 7.737 8.455 8.455C8.455 9.83 8.951 10.273 9.667 10.273C10.381 10.273 10.879 9.848 10.879 8.576C10.879 7.819 10.404 7.243 9.667 7.243V7.243Z" fill="#9299A3"/>
</svg>
